<svg width="29" height="61" viewBox="0 0 29 61" fill="none" xmlns="http://www.w3.org/2000/svg">
<path d="M1.37992 48.408H3.97192C4.85192 48.408 5.61992 48.592 6.27592 48.96C6.93192 49.32 7.43592 49.824 7.78792 50.472C8.13992 51.12 8.31592 51.864 8.31592 52.704C8.31592 53.544 8.13992 54.288 7.78792 54.936C7.43592 55.584 6.93192 56.092 6.27592 56.46C5.61992 56.82 4.85192 57 3.97192 57H1.37992V48.408ZM3.97192 56.028C4.98792 56.028 5.79192 55.736 6.38392 55.152C6.98392 54.568 7.28392 53.752 7.28392 52.704C7.28392 51.656 6.98392 50.84 6.38392 50.256C5.79192 49.672 4.98792 49.38 3.97192 49.38H2.38792V56.028H3.97192ZM9.37905 50.88H10.351V51.864H10.399C10.519 51.528 10.751 51.252 11.095 51.036C11.439 50.812 11.799 50.7 12.175 50.7C12.455 50.7 12.695 50.74 12.895 50.82V51.924C12.639 51.796 12.351 51.732 12.031 51.732C11.735 51.732 11.463 51.816 11.215 51.984C10.967 52.152 10.767 52.38 10.615 52.668C10.471 52.948 10.399 53.252 10.399 53.58V57H9.37905V50.88ZM14.479 49.752C14.279 49.752 14.107 49.68 13.963 49.536C13.819 49.392 13.747 49.22 13.747 49.02C13.747 48.82 13.819 48.652 13.963 48.516C14.107 48.372 14.279 48.3 14.479 48.3C14.679 48.3 14.851 48.372 14.995 48.516C15.139 48.652 15.211 48.82 15.211 49.02C15.211 49.22 15.139 49.392 14.995 49.536C14.859 49.68 14.687 49.752 14.479 49.752ZM13.975 50.88H14.983V57H13.975V50.88ZM15.9141 50.88H17.0061L18.9021 55.8H18.9261L20.8461 50.88H21.9141L19.4181 57H18.3861L15.9141 50.88ZM25.2984 57.192C24.7144 57.192 24.1904 57.052 23.7264 56.772C23.2624 56.492 22.8984 56.108 22.6344 55.62C22.3784 55.124 22.2504 54.568 22.2504 53.952C22.2504 53.36 22.3704 52.816 22.6104 52.32C22.8584 51.824 23.2064 51.428 23.6544 51.132C24.1024 50.836 24.6224 50.688 25.2144 50.688C25.8144 50.688 26.3344 50.824 26.7744 51.096C27.2144 51.36 27.5504 51.728 27.7824 52.2C28.0224 52.672 28.1424 53.212 28.1424 53.82C28.1424 53.94 28.1304 54.044 28.1064 54.132H23.2704C23.2944 54.596 23.4064 54.988 23.6064 55.308C23.8064 55.628 24.0584 55.868 24.3624 56.028C24.6744 56.188 24.9984 56.268 25.3344 56.268C26.1184 56.268 26.7224 55.9 27.1464 55.164L28.0104 55.584C27.7464 56.08 27.3864 56.472 26.9304 56.76C26.4824 57.048 25.9384 57.192 25.2984 57.192ZM27.0624 53.292C27.0464 53.036 26.9744 52.78 26.8464 52.524C26.7184 52.268 26.5144 52.052 26.2344 51.876C25.9624 51.7 25.6184 51.612 25.2024 51.612C24.7224 51.612 24.3144 51.768 23.9784 52.08C23.6504 52.384 23.4344 52.788 23.3304 53.292H27.0624Z" fill="#BCBDC2"/>
<path fill-rule="evenodd" clip-rule="evenodd" d="M15.0004 0.401093C21.9578 0.401093 27.6004 6.04365 27.6004 13.0011C27.6004 19.9585 21.9578 25.6011 15.0004 25.6011C8.04295 25.6011 2.40039 19.9585 2.40039 13.0011C2.40039 6.04365 8.04295 0.401093 15.0004 0.401093ZM12.2704 10.5575C9.74602 10.7905 8.87651 11.7694 4.35171 11.8285C4.93576 6.46368 9.48131 2.28664 15.0015 2.28664C20.5676 2.28664 25.1439 6.53368 25.6656 11.9632C21.1999 11.9096 20.279 10.9624 17.8584 10.7053C18.3637 11.3332 18.6655 12.1305 18.6655 13C18.6655 13.9155 18.3298 14.7511 17.7763 15.3932C20.2559 15.1493 21.1472 14.1835 25.6558 14.1277C25.1264 19.1842 21.0795 23.1949 16.0056 23.6673C16.057 19.2136 16.9954 18.2784 17.259 15.8864C16.6367 16.3742 15.8525 16.6651 15.0004 16.6651C14.0697 16.6651 13.2209 16.3184 12.5745 15.7464C12.8162 18.2401 13.7875 19.126 13.8421 23.6519C8.79654 23.1094 4.79898 19.0613 4.33306 13.993C8.7747 14.0488 9.70346 14.9894 12.1064 15.2487C11.6241 14.6274 11.3353 13.8476 11.3353 12.9999C11.3353 12.0615 11.6886 11.2051 12.2694 10.5565L12.2704 10.5575Z" fill="#7947F7"/>
<path fill-rule="evenodd" clip-rule="evenodd" d="M15.0003 10.5C16.3817 10.5 17.5017 11.62 17.5017 13.0003C17.5017 14.3817 16.3817 15.5017 15.0003 15.5017C13.6189 15.5017 12.5 14.3817 12.5 13.0003C12.5 11.6189 13.62 10.5 15.0003 10.5ZM16.3938 13.0014C16.3938 12.2292 15.7714 11.608 15.0003 11.608C14.2281 11.608 13.6069 12.2303 13.6069 13.0014C13.6069 13.7736 14.2292 14.3949 15.0003 14.3949C15.7725 14.3949 16.3938 13.7725 16.3938 13.0014Z" fill="#FF2F5E"/>
</svg>
